<mxfile host="app.diagrams.net" agent="Mozilla/5.0 (Windows NT 10.0; Win64; x64) AppleWebKit/537.36 (KHTML, like Gecko) Chrome/133.0.0.0 Safari/537.36" version="26.0.14">
  <diagram name="Trang-1" id="EH6qVJaTSHVqi4UOB_ty">
    <mxGraphModel dx="1050" dy="557" grid="1" gridSize="10" guides="1" tooltips="1" connect="1" arrows="1" fold="1" page="1" pageScale="1" pageWidth="827" pageHeight="1169" math="0" shadow="0">
      <root>
        <mxCell id="0" />
        <mxCell id="1" parent="0" />
        <mxCell id="hEWTkDuGkmp4qIvT-Xc8-1" value="" style="rounded=0;whiteSpace=wrap;html=1;" vertex="1" parent="1">
          <mxGeometry x="50" y="240" width="110" height="60" as="geometry" />
        </mxCell>
        <mxCell id="hEWTkDuGkmp4qIvT-Xc8-2" value="Đăng nhập,&lt;br&gt;Đăng ký" style="text;html=1;align=center;verticalAlign=middle;whiteSpace=wrap;rounded=0;" vertex="1" parent="1">
          <mxGeometry x="50" y="240" width="110" height="60" as="geometry" />
        </mxCell>
        <mxCell id="hEWTkDuGkmp4qIvT-Xc8-9" style="edgeStyle=orthogonalEdgeStyle;rounded=0;orthogonalLoop=1;jettySize=auto;html=1;exitX=1;exitY=0.5;exitDx=0;exitDy=0;entryX=0;entryY=0.5;entryDx=0;entryDy=0;" edge="1" parent="1" source="hEWTkDuGkmp4qIvT-Xc8-3" target="hEWTkDuGkmp4qIvT-Xc8-8">
          <mxGeometry relative="1" as="geometry" />
        </mxCell>
        <mxCell id="hEWTkDuGkmp4qIvT-Xc8-3" value="Xác thực tài khoản&lt;br&gt;(Authentication)" style="rounded=0;whiteSpace=wrap;html=1;" vertex="1" parent="1">
          <mxGeometry x="200" y="240" width="120" height="60" as="geometry" />
        </mxCell>
        <mxCell id="hEWTkDuGkmp4qIvT-Xc8-18" style="edgeStyle=orthogonalEdgeStyle;rounded=0;orthogonalLoop=1;jettySize=auto;html=1;entryX=0;entryY=0.5;entryDx=0;entryDy=0;" edge="1" parent="1" source="hEWTkDuGkmp4qIvT-Xc8-4" target="hEWTkDuGkmp4qIvT-Xc8-16">
          <mxGeometry relative="1" as="geometry" />
        </mxCell>
        <mxCell id="hEWTkDuGkmp4qIvT-Xc8-4" value="Thay đổi thông tin người dùng" style="rounded=0;whiteSpace=wrap;html=1;" vertex="1" parent="1">
          <mxGeometry x="550" y="120" width="120" height="60" as="geometry" />
        </mxCell>
        <mxCell id="hEWTkDuGkmp4qIvT-Xc8-15" style="edgeStyle=orthogonalEdgeStyle;rounded=0;orthogonalLoop=1;jettySize=auto;html=1;entryX=0;entryY=0.5;entryDx=0;entryDy=0;" edge="1" parent="1" source="hEWTkDuGkmp4qIvT-Xc8-5" target="hEWTkDuGkmp4qIvT-Xc8-16">
          <mxGeometry relative="1" as="geometry">
            <mxPoint x="710" y="260" as="targetPoint" />
          </mxGeometry>
        </mxCell>
        <mxCell id="hEWTkDuGkmp4qIvT-Xc8-5" value="Xóa tài khoản người dùng" style="rounded=0;whiteSpace=wrap;html=1;" vertex="1" parent="1">
          <mxGeometry x="550" y="380" width="120" height="60" as="geometry" />
        </mxCell>
        <mxCell id="hEWTkDuGkmp4qIvT-Xc8-7" value="" style="endArrow=none;html=1;rounded=0;exitX=1;exitY=0.5;exitDx=0;exitDy=0;entryX=0;entryY=0.5;entryDx=0;entryDy=0;" edge="1" parent="1" source="hEWTkDuGkmp4qIvT-Xc8-2" target="hEWTkDuGkmp4qIvT-Xc8-3">
          <mxGeometry width="50" height="50" relative="1" as="geometry">
            <mxPoint x="390" y="220" as="sourcePoint" />
            <mxPoint x="440" y="170" as="targetPoint" />
          </mxGeometry>
        </mxCell>
        <mxCell id="hEWTkDuGkmp4qIvT-Xc8-11" style="edgeStyle=orthogonalEdgeStyle;rounded=0;orthogonalLoop=1;jettySize=auto;html=1;entryX=0;entryY=0.5;entryDx=0;entryDy=0;" edge="1" parent="1" source="hEWTkDuGkmp4qIvT-Xc8-8" target="hEWTkDuGkmp4qIvT-Xc8-4">
          <mxGeometry relative="1" as="geometry" />
        </mxCell>
        <mxCell id="hEWTkDuGkmp4qIvT-Xc8-12" style="edgeStyle=orthogonalEdgeStyle;rounded=0;orthogonalLoop=1;jettySize=auto;html=1;entryX=0;entryY=0.5;entryDx=0;entryDy=0;" edge="1" parent="1" source="hEWTkDuGkmp4qIvT-Xc8-8" target="hEWTkDuGkmp4qIvT-Xc8-5">
          <mxGeometry relative="1" as="geometry" />
        </mxCell>
        <mxCell id="hEWTkDuGkmp4qIvT-Xc8-13" style="edgeStyle=orthogonalEdgeStyle;rounded=0;orthogonalLoop=1;jettySize=auto;html=1;entryX=0;entryY=0.5;entryDx=0;entryDy=0;" edge="1" parent="1" source="hEWTkDuGkmp4qIvT-Xc8-8" target="hEWTkDuGkmp4qIvT-Xc8-14">
          <mxGeometry relative="1" as="geometry">
            <mxPoint x="550" y="270" as="targetPoint" />
          </mxGeometry>
        </mxCell>
        <mxCell id="hEWTkDuGkmp4qIvT-Xc8-8" value="Danh sách tài khoản" style="rounded=0;whiteSpace=wrap;html=1;" vertex="1" parent="1">
          <mxGeometry x="354" y="240" width="120" height="60" as="geometry" />
        </mxCell>
        <mxCell id="hEWTkDuGkmp4qIvT-Xc8-17" style="edgeStyle=orthogonalEdgeStyle;rounded=0;orthogonalLoop=1;jettySize=auto;html=1;entryX=0;entryY=0.5;entryDx=0;entryDy=0;" edge="1" parent="1" source="hEWTkDuGkmp4qIvT-Xc8-14" target="hEWTkDuGkmp4qIvT-Xc8-16">
          <mxGeometry relative="1" as="geometry" />
        </mxCell>
        <mxCell id="hEWTkDuGkmp4qIvT-Xc8-14" value="Thêm Tài khoản" style="rounded=0;whiteSpace=wrap;html=1;" vertex="1" parent="1">
          <mxGeometry x="550" y="240" width="120" height="60" as="geometry" />
        </mxCell>
        <mxCell id="hEWTkDuGkmp4qIvT-Xc8-16" value="Xác nhận và lưu danh sách" style="rounded=0;whiteSpace=wrap;html=1;" vertex="1" parent="1">
          <mxGeometry x="770" y="240" width="120" height="60" as="geometry" />
        </mxCell>
      </root>
    </mxGraphModel>
  </diagram>
</mxfile>
